# xmcd
#
# Track frame offsets: 
#        151
#        1121
#        18020
#        46974
#        71815
#        88663
#        104505
#        128669
#        149405
#        171699
#        194281
#        213605
#        224329
#        248144
#        265204
#
# Disc length: 3551 seconds
#
# Revision: 1
# Processed by: cddbd v1.5.2PL0 Copyright (c) Steve Scherf et al.
# Submitted via: ExactAudioCopy v0.95b4
#
DISCID=de0ddd0f
DTITLE=Scott Holt - From Lettsworth to Legend - A Tribute to Buddy Guy
DYEAR=2007
DGENRE=Blues
TTITLE0=Intro
TTITLE1=First Time I Met The Blues
TTITLE2=Damn Right I've Got The Blues
TTITLE3=My Time After Awhile
TTITLE4=Nice And Clean
TTITLE5=I Dig Your Wig
TTITLE6=She Suits Me To A T
TTITLE7=Ten Years Ago
TTITLE8=Nobody Understands Me (But My Guitar)
TTITLE9=When My Left Eye Jumps
TTITLE10=My Mother
TTITLE11=Too Many Ways
TTITLE12=One Room Country Shack
TTITLE13=You've Been Gone Too Long
TTITLE14=Outro
EXTD=
EXTT0=
EXTT1=
EXTT2=
EXTT3=
EXTT4=
EXTT5=
EXTT6=
EXTT7=
EXTT8=
EXTT9=
EXTT10=
EXTT11=
EXTT12=
EXTT13=
EXTT14=
PLAYORDER=
